M48
; DRILL file {KiCad (5.99.0-10928-g75ce97e260)} date Monday, November 15, 2021 at 06:15:09 PM
; FORMAT={-:-/ absolute / inch / decimal}
; #@! TF.CreationDate,2021-11-15T18:15:09+01:00
; #@! TF.GenerationSoftware,Kicad,Pcbnew,(5.99.0-10928-g75ce97e260)
; #@! TF.FileFunction,Plated,1,2,PTH
FMAT,2
INCH
; #@! TA.AperFunction,Plated,PTH,ViaDrill
T1C0.0157
; #@! TA.AperFunction,Plated,PTH,ViaDrill
T2C0.0236
; #@! TA.AperFunction,Plated,PTH,ComponentDrill
T3C0.0236
; #@! TA.AperFunction,Plated,PTH,ComponentDrill
T4C0.0276
; #@! TA.AperFunction,Plated,PTH,ComponentDrill
T5C0.0354
; #@! TA.AperFunction,Plated,PTH,ComponentDrill
T6C0.0394
%
G90
G05
T1
X2.39Y-5.515
X2.512Y-5.222
X2.5123Y-5.1753
X2.875Y-5.275
X3.0886Y-5.521
X3.325Y-5.3675
X3.9724Y-5.3434
T2
X2.1Y-2.54
X2.1Y-3.54
X2.1Y-4.13
X2.1Y-5.04
X2.2Y-2.54
X2.2Y-3.54
X2.2Y-4.13
X2.218Y-4.868
X2.3Y-2.54
X2.3Y-3.54
X2.3Y-4.13
X2.3Y-5.04
X2.35Y-2.961
X2.4Y-2.54
X2.4Y-3.54
X2.4Y-4.13
X2.4Y-5.04
X2.5Y-2.54
X2.5Y-3.54
X2.5Y-5.04
X2.55Y-4.008
X2.6Y-2.54
X2.6Y-3.54
X2.6Y-5.04
X2.7Y-2.54
X2.7Y-3.54
X2.7Y-4.13
X2.7Y-5.04
X2.703Y-5.246
X2.8Y-2.54
X2.8Y-3.54
X2.8Y-4.13
X2.8Y-5.04
X2.803Y-2.694
X2.9Y-2.54
X2.9Y-3.54
X2.9Y-4.13
X2.9Y-5.04
X2.9Y-5.179
X2.9004Y-4.764
X2.956Y-5.838
X2.973Y-3.505
X2.973Y-3.57
X3.0Y-2.54
X3.0Y-4.13
X3.0Y-5.04
X3.018Y-5.222
X3.026Y-4.764
X3.053Y-4.578
X3.0824Y-4.764
X3.1Y-2.54
X3.1Y-3.54
X3.1Y-4.13
X3.1Y-5.04
X3.19Y-5.517
X3.192Y-3.878
X3.2Y-2.54
X3.2Y-3.54
X3.2Y-4.13
X3.2Y-5.04
X3.21Y-4.764
X3.2156Y-5.1107
X3.257Y-5.377
X3.274Y-5.152
X3.3Y-2.54
X3.3Y-3.54
X3.3Y-4.13
X3.31Y-2.917
X3.32Y-5.008
X3.334Y-5.635
X3.346Y-4.534
X3.38Y-3.199
X3.382Y-3.858
X3.393Y-3.374
X3.393Y-3.475
X3.4Y-2.54
X3.4Y-3.54
X3.4Y-4.13
X3.4Y-5.04
X3.432Y-5.702
X3.49Y-2.54
X3.49Y-2.72
X3.49Y-2.85
X3.49Y-2.99
X3.49Y-3.13
X3.49Y-3.29
X3.49Y-3.87
X3.49Y-4.0
X3.5Y-4.13
X3.5Y-5.04
X3.503Y-5.419
X3.531Y-4.72
X3.536Y-3.588
X3.542Y-2.918
X3.568Y-5.008
X3.568Y-5.082
X3.58Y-3.812
X3.585Y-3.476
X3.6Y-4.021
X3.6Y-4.13
X3.602Y-2.646
X3.602Y-2.791
X3.602Y-3.936
X3.629Y-2.429
X3.6336Y-3.4016
X3.697Y-3.138
X3.7Y-4.13
X3.7Y-5.04
X3.726Y-5.334
X3.786Y-3.748
X3.8Y-4.13
X3.81Y-5.008
X3.81Y-5.082
X3.829Y-4.533
X3.872Y-2.616
X3.872Y-5.365
X3.9Y-4.13
X3.9Y-5.04
X3.93Y-5.545
X3.97Y-4.706
X4.0Y-4.13
X4.0Y-5.04
X4.016Y-4.556
X4.031Y-2.718
X4.088Y-3.335
X4.1Y-4.13
X4.1Y-5.04
X4.117Y-3.228
X4.137Y-3.827
X4.139Y-2.94
X4.16Y-4.62
X4.18Y-4.424
X4.2Y-4.13
X4.2Y-5.04
X4.218Y-4.716
X4.242Y-2.669
X4.251Y-3.6
X4.3Y-5.04
X4.318Y-5.564
X4.331Y-3.229
X4.378Y-2.87
X4.395Y-3.896
X4.409Y-3.797
X4.413Y-4.276
X4.417Y-4.45
X4.45Y-4.13
X4.45Y-4.21
X4.45Y-4.36
X4.45Y-4.54
X4.45Y-4.7
X4.45Y-4.95
X4.45Y-5.04
X4.45Y-5.21
X4.45Y-5.34
X4.45Y-5.48
X4.45Y-5.615
X4.45Y-5.755
X4.45Y-5.9
X4.474Y-3.36
X4.491Y-4.45
X4.548Y-5.686
X4.56Y-2.72
X4.57Y-5.41
X4.57Y-5.5146
X4.575Y-3.441
X4.585Y-5.8
X4.59Y-4.27
X4.601Y-3.307
X4.62Y-4.83
X4.64Y-4.005
X4.653Y-3.911
X4.658Y-5.4
X4.663Y-3.6
X4.669Y-2.954
X4.6753Y-4.5
X4.676Y-3.833
X4.68Y-4.34
X4.68Y-4.575
X4.6815Y-4.4229
X4.72Y-3.359
X4.724Y-2.545
X4.724Y-2.989
X4.73Y-4.325
X4.76Y-4.755
X4.788Y-5.37
X4.808Y-2.719
X4.8188Y-5.559
X4.819Y-5.2792
X4.83Y-4.8789
X4.8431Y-5.59
X4.86Y-4.33
X4.876Y-5.09
X4.8825Y-5.5906
X4.933Y-5.2492
X4.934Y-3.601
X4.936Y-3.287
X4.936Y-3.457
X4.936Y-3.837
X4.941Y-2.916
X4.975Y-5.2692
X4.98Y-4.6
X4.995Y-5.0
X5.0Y-5.39
X5.015Y-5.7
X5.02Y-5.585
X5.022Y-5.234
X5.03Y-4.78
X5.04Y-4.89
X5.04Y-5.872
X5.0454Y-3.4016
X5.105Y-3.547
X5.11Y-4.84
X5.117Y-2.158
X5.127Y-3.465
X5.13Y-4.48
X5.14Y-5.078
X5.15Y-5.38
X5.156Y-3.671
X5.17Y-4.01
X5.205Y-3.08
X5.21Y-3.91
X5.21Y-4.09
X5.2113Y-4.39
X5.215Y-5.465
X5.2596Y-3.466
X5.26Y-3.85
X5.265Y-5.245
X5.27Y-4.18
X5.275Y-5.02
X5.31Y-5.1
X5.37Y-4.3
X5.382Y-5.514
X5.404Y-3.864
X5.413Y-4.342
X5.433Y-3.452
X5.448Y-4.872
X5.452Y-3.956
X5.476Y-3.736
X5.49Y-4.45
X5.496Y-3.54
X5.552Y-4.074
X5.552Y-5.1
X5.5526Y-2.91
X5.563Y-5.699
X5.636Y-3.128
X5.643Y-2.51
X5.726Y-2.913
X5.8734Y-3.7474
T3
X2.1845Y-3.339
X2.1862Y-4.588
X2.1865Y-5.5008
T4
X2.3Y-5.5008
X2.45Y-4.88
X2.627Y-4.48
X3.111Y-3.031
X3.18Y-5.426
X3.26Y-3.98
X3.286Y-3.034
X3.412Y-4.714
X3.504Y-4.269
X3.952Y-4.826
X3.991Y-3.397
X3.991Y-3.532
X4.0Y-2.848
X4.155Y-4.269
X4.184Y-3.1
X4.525Y-3.1
X5.495Y-3.2512
X5.78Y-3.254
T5
X2.8802Y-2.672
X2.9802Y-2.672
X3.2792Y-5.523
X3.3792Y-5.523
X5.496Y-2.158
X5.496Y-2.258
X5.496Y-2.724
X5.496Y-2.824
X5.777Y-2.163
X5.777Y-2.263
X5.78Y-2.7258
X5.78Y-2.8258
T6
X2.098Y-2.7828
X2.098Y-2.8828
X2.3256Y-3.749
X2.4256Y-3.749
X2.5256Y-3.749
X2.925Y-3.75
X3.025Y-3.75
X3.125Y-3.75
X3.225Y-3.75
X3.325Y-3.75
X3.903Y-2.998
X3.903Y-3.098
X3.903Y-3.198
X4.003Y-2.998
X4.003Y-3.098
X4.003Y-3.198
X4.63Y-4.17
X4.63Y-4.67
X4.71Y-4.95
X4.71Y-5.05
X4.71Y-5.15
X4.71Y-5.25
X4.71Y-5.35
X4.71Y-5.45
X4.71Y-5.55
X4.71Y-5.65
X4.71Y-5.75
X4.71Y-5.85
X4.73Y-4.17
X4.73Y-4.67
X4.83Y-4.17
X4.83Y-4.67
X4.93Y-4.17
X4.93Y-4.67
X5.03Y-4.17
X5.03Y-4.67
X5.13Y-4.17
X5.13Y-4.67
X5.198Y-2.573
X5.198Y-2.673
X5.198Y-2.773
X5.198Y-2.873
X5.652Y-3.712
X5.652Y-3.812
X5.652Y-3.912
X5.652Y-4.012
X5.652Y-4.112
X5.652Y-4.212
X5.652Y-4.312
X5.652Y-4.412
X5.652Y-4.512
X5.652Y-4.612
X5.652Y-4.712
X5.652Y-4.812
X5.652Y-4.912
X5.652Y-5.012
X5.652Y-5.112
X5.652Y-5.212
X5.652Y-5.312
X5.652Y-5.412
X5.652Y-5.512
X5.652Y-5.612
X5.752Y-3.712
X5.752Y-3.812
X5.752Y-3.912
X5.752Y-4.012
X5.752Y-4.112
X5.752Y-4.212
X5.752Y-4.312
X5.752Y-4.412
X5.752Y-4.512
X5.752Y-4.612
X5.752Y-4.712
X5.752Y-4.812
X5.752Y-4.912
X5.752Y-5.012
X5.752Y-5.112
X5.752Y-5.212
X5.752Y-5.312
X5.752Y-5.412
X5.752Y-5.512
X5.752Y-5.612
T0
M30
